<svg width="16" height="24" viewBox="0 0 16 24" fill="none" xmlns="http://www.w3.org/2000/svg">
<path d="M7.99965 0.473633C3.58859 0.473633 0 4.06275 0 8.47392C0 12.7201 7.25822 22.6405 7.56727 23.0606L7.8557 23.4532C7.88943 23.4993 7.94314 23.5263 7.99965 23.5263C8.05703 23.5263 8.1104 23.4993 8.14448 23.4532L8.43273 23.0606C8.74195 22.6405 16 12.7201 16 8.47392C16 4.06275 12.4108 0.473633 7.99965 0.473633ZM7.99965 5.60823C9.58015 5.60823 10.8653 6.89349 10.8653 8.47392C10.8653 10.0535 9.58009 11.3396 7.99965 11.3396C6.42009 11.3396 5.13396 10.0535 5.13396 8.47392C5.13396 6.89349 6.42003 5.60823 7.99965 5.60823Z" fill="white"/>
</svg>
