<svg width="21" height="16" viewBox="0 0 21 16" fill="none" xmlns="http://www.w3.org/2000/svg">
<path d="M18.3576 3.99704C18.3706 4.17204 18.3706 4.34604 18.3706 4.52004C18.3706 9.84504 14.3176 15.981 6.91061 15.981C4.62861 15.981 2.50861 15.32 0.724609 14.172C1.04861 14.209 1.36061 14.222 1.69761 14.222C3.58061 14.222 5.31361 13.586 6.69861 12.501C4.92761 12.464 3.44361 11.304 2.93161 9.70804C3.18061 9.74504 3.43061 9.77004 3.69261 9.77004C4.05361 9.77004 4.41661 9.72004 4.75361 9.63304C2.90661 9.25904 1.52361 7.63804 1.52361 5.68004V5.63004C2.06061 5.92904 2.68361 6.11604 3.34361 6.14104C2.25861 5.41904 1.54761 4.18404 1.54761 2.78704C1.54761 2.03904 1.74661 1.35304 2.09561 0.755043C4.07861 3.19804 7.05961 4.79504 10.4016 4.97004C10.3396 4.67004 10.3016 4.35904 10.3016 4.04704C10.3016 1.82704 12.0976 0.019043 14.3296 0.019043C15.4896 0.019043 16.5366 0.505043 17.2726 1.29104C18.1826 1.11604 19.0546 0.779043 19.8286 0.318043C19.5296 1.25304 18.8926 2.03904 18.0576 2.53804C18.8686 2.45004 19.6546 2.22604 20.3766 1.91404C19.8286 2.71204 19.1436 3.42304 18.3576 3.99704Z" fill="#CAC2C2"/>
</svg>
