<svg width="178" height="179" viewBox="0 0 178 179" fill="none" xmlns="http://www.w3.org/2000/svg">
<path d="M88.76 177.52C137.781 177.52 177.52 137.781 177.52 88.76C177.52 39.7392 137.781 0 88.76 0C39.7392 0 0 39.7392 0 88.76C0 137.781 39.7392 177.52 88.76 177.52Z" fill="#4A6634"/>
<path d="M20.8251 87.8727C20.819 88.2492 20.6789 88.57 20.405 88.8352C20.131 89.1005 19.8058 89.23 19.4293 89.2239C19.0529 89.2178 18.7321 89.0778 18.4668 88.8038C18.2016 88.5298 18.0721 88.2046 18.0782 87.8282C18.0843 87.4517 18.2243 87.1309 18.4983 86.8657C18.7723 86.6004 19.0975 86.4709 19.4739 86.477C19.7232 86.481 19.9511 86.5483 20.1576 86.6789C20.3641 86.8044 20.5293 86.9724 20.6531 87.183C20.7719 87.3885 20.8292 87.6184 20.8251 87.8727Z" fill="white"/>
<path d="M30.5373 82.2346L12.3334 79.1229L12.9557 75.4821L28.0567 78.0634L28.6967 74.3192L31.7997 74.8496L30.5373 82.2346Z" fill="white"/>
<path d="M33.1906 70.4103L15.8386 64.0879L17.0599 60.7358L34.412 67.0582L33.1906 70.4103Z" fill="white"/>
<path d="M36.0263 62.4401L20.6422 52.2228L23.7538 47.5376L33.9921 52.473L25.4664 44.959L28.607 40.2302L43.9912 50.4475L42.1219 53.2621L31.0383 45.901L40.9492 55.0278L39.1147 57.7899L26.7888 52.2994L37.8724 59.6605L36.0263 62.4401Z" fill="white"/>
<path d="M47.6176 47.1659L35.0343 33.6483L37.6456 31.2174L50.229 44.735L47.6176 47.1659Z" fill="white"/>
<path d="M55.6098 40.5421L47.5377 27.9927L45.6933 29.1791L43.7746 26.1962L50.57 21.8253L52.4887 24.8082L50.6442 25.9946L58.7162 38.5439L55.6098 40.5421Z" fill="white"/>
<path d="M64.6976 35.3231L58.1606 18.0508L65.0695 15.436L66.3324 18.7727L62.9368 20.0578L64.2107 23.4239L67.4689 22.1908L68.6983 25.4392L65.4402 26.6723L66.937 30.6273L70.5583 29.2567L71.8323 32.6229L64.6976 35.3231Z" fill="white"/>
<path d="M76.3448 31.4274L73.8512 13.1285L78.8833 12.4428C80.2003 12.2633 81.2415 12.4956 82.0071 13.1397C82.7717 13.7768 83.2498 14.7989 83.4416 16.206L84.6091 24.7731C84.8452 26.506 84.7225 27.8853 84.241 28.9111C83.7664 29.9359 82.7702 30.5518 81.2522 30.7586L76.3448 31.4274ZM79.5847 27.6923L80.2189 27.6059C80.8913 27.5143 81.183 27.1427 81.0943 26.4912L79.8078 17.0506C79.7247 16.4407 79.5881 16.0604 79.3981 15.9098C79.2142 15.7513 78.8726 15.706 78.3736 15.774L77.9681 15.8293L79.5847 27.6923Z" fill="white"/>
<path d="M99.2855 31.1139L103.7 13.1814L110.873 14.9472L110.02 18.4115L106.495 17.5436L105.635 21.0384L109.017 21.8712L108.187 25.2437L104.804 24.411L103.793 28.5171L107.553 29.4427L106.693 32.9375L99.2855 31.1139Z" fill="white"/>
<path d="M111.089 34.5022L119.412 18.0165L123.946 20.3055C125.133 20.9046 125.858 21.6865 126.124 22.6511C126.392 23.6094 126.206 24.7224 125.566 25.9901L121.669 33.7084C120.881 35.2695 119.998 36.336 119.019 36.9078C118.047 37.4828 116.877 37.425 115.51 36.7345L111.089 34.5022ZM115.875 33.2633L116.447 33.5518C117.052 33.8576 117.503 33.7171 117.8 33.1301L122.094 24.625C122.372 24.0754 122.475 23.6848 122.404 23.453C122.342 23.2181 122.087 22.9872 121.637 22.7602L121.272 22.5757L115.875 33.2633Z" fill="white"/>
<path d="M123.284 41.5178L134.641 26.955L137.455 29.149L126.097 43.7119L123.284 41.5178Z" fill="white"/>
<path d="M131.08 48.3623L142.19 38.4013L140.726 36.7684L143.367 34.4008L148.76 40.4165L146.12 42.7842L144.656 41.1513L133.546 51.1124L131.08 48.3623Z" fill="white"/>
<path d="M137.624 56.5766L153.342 46.8804L155.215 49.9168L139.497 59.613L137.624 56.5766Z" fill="white"/>
<path d="M143.388 68.3135C142.871 66.9312 142.89 65.7175 143.448 64.6722C144.014 63.631 145.086 62.8147 146.665 62.2235L154.88 59.1471C156.361 58.5926 157.619 58.5322 158.656 58.9658C159.694 59.4059 160.475 60.3237 160.998 61.7191C161.52 63.1145 161.533 64.316 161.037 65.3237C160.542 66.3379 159.555 67.1222 158.074 67.6767L149.859 70.7531C148.28 71.3443 146.934 71.4301 145.821 71.0104C144.717 70.5948 143.906 69.6958 143.388 68.3135ZM146.583 67.1507C146.779 67.6748 147.385 67.7467 148.401 67.3665L156.842 64.2054C157.693 63.8865 158.024 63.4715 157.832 62.9605C157.616 62.384 157.073 62.2589 156.201 62.5852L147.77 65.7426C147.233 65.9438 146.871 66.154 146.684 66.3734C146.504 66.5903 146.47 66.8494 146.583 67.1507Z" fill="white"/>
<path d="M146.282 77.2394L164.619 75.0464L165.07 78.818L156.489 81.5563L165.272 80.5059L165.696 84.0483L147.359 86.2414L146.93 82.6573L155.879 79.727L146.711 80.8236L146.282 77.2394Z" fill="white"/>
<path d="M156.478 94.3872C156.505 94.0116 156.663 93.699 156.951 93.4492C157.239 93.1994 157.571 93.0879 157.946 93.1147C158.322 93.1415 158.634 93.299 158.884 93.5871C159.134 93.8753 159.245 94.2071 159.219 94.5826C159.192 94.9582 159.034 95.2708 158.746 95.5206C158.458 95.7704 158.126 95.8819 157.751 95.8551C157.502 95.8373 157.278 95.7576 157.079 95.6159C156.88 95.4793 156.724 95.3024 156.612 95.0853C156.505 94.8736 156.46 94.6409 156.478 94.3872Z" fill="white"/>
<path fill-rule="evenodd" clip-rule="evenodd" d="M64.6996 78.06C59.4896 84.17 54.4996 91.75 54.4496 97.42C54.4296 99.55 55.1096 101.41 56.7396 102.82C59.0896 104.85 61.6796 105.57 64.2496 105.57C68.0096 105.57 71.7496 104.06 74.6796 102.89C79.6096 100.92 134.1 77.25 134.1 77.25C134.63 76.99 134.53 76.66 133.87 76.82C133.6 76.89 74.5496 92.89 74.5496 92.89C73.4296 93.21 72.2796 93.37 71.1096 93.38C66.5696 93.41 62.5296 90.89 62.5696 85.58C62.5796 83.5 63.2196 81 64.6896 78.05L64.6996 78.06Z" fill="white"/>
<path d="M56.6037 163.948L63.5847 142.334L68.0303 143.77L66.676 154.765L70.0198 144.413L74.1952 145.761L67.2141 167.375L62.9896 166.011L64.3187 154.506L60.8282 165.313L56.6037 163.948Z" fill="white"/>
<path d="M79.4537 169.261L80.8719 146.592L85.2512 146.866L83.8329 169.535L79.4537 169.261Z" fill="white"/>
<path d="M96.0319 169.199L92.002 146.846L96.4217 146.049L98.036 155.003L98.5046 145.674L103.001 144.863L102.344 155.551L107.551 167.122L102.916 167.958L98.5262 157.577L100.477 168.398L96.0319 169.199Z" fill="white"/>
<path d="M118.79 163.091L108.659 142.763L116.79 138.71L118.747 142.637L114.751 144.629L116.725 148.591L120.56 146.68L122.465 150.503L118.631 152.414L120.95 157.069L125.212 154.945L127.187 158.906L118.79 163.091Z" fill="white"/>
</svg>
